<svg version="1" xmlns="http://www.w3.org/2000/svg" width="1245.333" height="1245.333" viewBox="0 0 934.000000 934.000000"><path d="M233.2.7c128.6.2 339 .2 467.5 0C829.3.6 724.1.5 467 .5 209.9.5 104.7.6 233.2.7zM498.4 258.5c-38.4 6.8-74.1 32.8-97.4 71-25.7 42.1-38.9 94.8-35.9 143 2.6 41.7 18.4 74.8 45.3 95 11.2 8.3 28.4 14.7 44.6 16.5 33.2 3.7 64-11.2 86.9-41.8 19.4-25.9 30.6-64 25.7-87.2-5.9-27.8-30.8-51-64.1-59.5-28.6-7.3-55.6-2.6-77.5 13.5-11.5 8.5-21 22.5-21 30.7.1 4.6 1.7 6.9 5.8 8.4 4.5 1.6 8.9-.8 15.8-8.6 14.7-16.7 31.6-24.5 52.9-24.5 34.6 0 59.1 21.3 62 54 1.4 15.2-3.5 35.4-12.2 51-3.5 6.2-7.4 11.1-14.3 18-8.1 8.1-10.9 10.3-19 14.3-14.9 7.4-30.7 9.5-46.2 6.3-51.7-11-72.1-94.3-44-180.1 5.1-15.7 16-38.2 23.7-49 11.8-16.5 27.3-29.8 43.8-37.5 11.9-5.6 18.4-7 33.7-7.7 15.2-.6 20.3.6 31 7.1 7.2 4.4 9.2 4.9 15.6 4.1 6.9-.8 12.8-5.9 13.9-11.8 2.3-12.2-6.6-20.5-26.5-24.7-8.9-1.8-33.3-2.2-42.6-.5z"/></svg>